<svg xmlns="http://www.w3.org/2000/svg" width="23.013" height="23.013" viewBox="0 0 23.013 23.013">
  <g id="dashboard" transform="translate(-3.25 -3.25)">
    <path id="Path_273253" data-name="Path 273253" d="M19.811,14.428H15.866a3.619,3.619,0,0,1-3.616-3.616V6.866A3.619,3.619,0,0,1,15.866,3.25h3.945a3.619,3.619,0,0,1,3.616,3.616v3.945A3.619,3.619,0,0,1,19.811,14.428ZM15.866,5.223a1.646,1.646,0,0,0-1.644,1.644v3.945a1.646,1.646,0,0,0,1.644,1.644h3.945a1.646,1.646,0,0,0,1.644-1.644V6.866a1.646,1.646,0,0,0-1.644-1.644Z" transform="translate(2.835)" fill="#262733"/>
    <path id="Path_273254" data-name="Path 273254" d="M10.811,14.428H6.866A3.619,3.619,0,0,1,3.25,10.811V6.866A3.619,3.619,0,0,1,6.866,3.25h3.945a3.619,3.619,0,0,1,3.616,3.616v3.945A3.619,3.619,0,0,1,10.811,14.428ZM6.866,5.223A1.646,1.646,0,0,0,5.223,6.866v3.945a1.646,1.646,0,0,0,1.644,1.644h3.945a1.646,1.646,0,0,0,1.644-1.644V6.866a1.646,1.646,0,0,0-1.644-1.644Zm3.945,21.041H6.866A3.619,3.619,0,0,1,3.25,22.647V18.7a3.619,3.619,0,0,1,3.616-3.616h3.945A3.619,3.619,0,0,1,14.428,18.7v3.945A3.619,3.619,0,0,1,10.811,26.263ZM6.866,17.058A1.646,1.646,0,0,0,5.223,18.7v3.945a1.646,1.646,0,0,0,1.644,1.644h3.945a1.646,1.646,0,0,0,1.644-1.644V18.7a1.646,1.646,0,0,0-1.644-1.644Zm15.78,9.205H18.7a3.619,3.619,0,0,1-3.616-3.616V18.7A3.619,3.619,0,0,1,18.7,15.085h3.945A3.619,3.619,0,0,1,26.263,18.7v3.945A3.619,3.619,0,0,1,22.647,26.263ZM18.7,17.058A1.646,1.646,0,0,0,17.058,18.7v3.945A1.646,1.646,0,0,0,18.7,24.291h3.945a1.646,1.646,0,0,0,1.644-1.644V18.7a1.646,1.646,0,0,0-1.644-1.644Z" fill="#262733"/>
  </g>
</svg>
